<svg xmlns="http://www.w3.org/2000/svg" fill="none" viewBox="0 0 43 27"><path fill="#F79410" d="M42.6 21.6V21h-.1l-.2.3-.1-.3H42v.5h.1v-.4l.2.3.2-.3v.4zm-.9 0v-.4h.2V21h-.4.1v.5h.1z"/><path fill="#FF5F00" d="M27.3 23.7H15.7V3.3h11.6v20.4z"/><path fill="#EB001B" d="M16.4 13.5c0-4.1 2-7.8 5.1-10.2A13.4 13.4 0 0013.3.5C6 .5 0 6.4 0 13.5c0 7.2 6 13 13.3 13 3.1 0 6-1 8.2-2.8-3-2.3-5-6-5-10.2z"/><path fill="#F79E1B" d="M43 13.5c0 7.2-6 13-13.3 13-3 0-6-1-8.2-2.8a12.9 12.9 0 000-20.4C23.8 1.6 26.6.5 29.7.5 37.1.5 43 6.4 43 13.5z"/></svg>