<svg xmlns="http://www.w3.org/2000/svg" fill="none" viewBox="0 0 82 24"><g clip-path="url(#clip0)"><path fill="#319B42" d="M45.7 3L40.5 14h-.6V.5h-7.3v23h6.2a4.2 4.2 0 003.8-2.4L47.8 10h.5v13.5h7.4V.5h-6.2A4.2 4.2 0 0045.7 3zM18 3.6L15 14h-.5L11.4 3.6a4.2 4.2 0 00-4-3H0v23h7.4V10h.5L12 23.5h5.2L21.6 10h.5v13.5h7.3V.5h-7.3a4.2 4.2 0 00-4 3zM58.9 11v12.5h7.3v-7.3h8a8 8 0 007.3-5.2H59z"/><path fill="url(#paint0_linear)" d="M74.1.5H57.8A11.5 11.5 0 0069.2 10h12.6a7.8 7.8 0 00-4.3-8.7A8 8 0 0074 .5z"/></g><defs><linearGradient id="paint0_linear" x1="57.8" x2="82" y1="5.2" y2="5.2" gradientUnits="userSpaceOnUse"><stop stop-color="#00A3E1"/><stop offset=".3" stop-color="#009ADD"/><stop offset=".8" stop-color="#0082D4"/><stop offset="1" stop-color="#0076CF"/></linearGradient><clipPath id="clip0"><path fill="#fff" d="M0 0h82v23H0z" transform="translate(0 .5)"/></clipPath></defs></svg>