<svg xmlns="http://www.w3.org/2000/svg" fill="none" viewBox="0 0 71 24"><g clip-path="url(#clip0)"><path fill="#00579F" d="M30.8 23.2H25L28.6 1h5.8l-3.6 22.3zM51.6 1.5c-1.1-.5-3-1-5.1-1-5.7 0-9.7 3-9.7 7.4 0 3.2 2.8 5 5 6 2.2 1.1 3 1.9 3 2.8 0 1.5-1.8 2.2-3.5 2.2-2.3 0-3.5-.4-5.4-1.2l-.7-.3-.8 5c1.3.6 3.8 1.1 6.4 1.1 6 0 10-3 10-7.6 0-2.5-1.5-4.4-4.8-6-2-1-3.3-1.7-3.3-2.8 0-1 1-1.9 3.3-1.9 1.9 0 3.3.4 4.3.9l.5.2.8-4.8zM59.3 15.3l2.3-6.2.7-2.1.4 1.9 1.3 6.4h-4.7zm7-14.4H62c-1.4 0-2.4.5-3 1.9l-8.5 20.4h6l1.2-3.3H65l.7 3.3H71L66.4 1zM20.2 1L14.6 16l-.6-3a17 17 0 00-8-9.4l5.2 19.5h6l9-22.3h-6z"/><path fill="#FAA61A" d="M9.3 1H.1l-.1.4c7.2 1.8 12 6.3 14 11.7L12 2.8C11.6 1.4 10.6 1 9.3 1z"/></g><defs><clipPath id="clip0"><path fill="#fff" d="M0 0h71v23H0z" transform="translate(0 .5)"/></clipPath></defs></svg>